<svg xmlns="http://www.w3.org/2000/svg" xmlns:xlink="http://www.w3.org/1999/xlink" viewBox="0 0 1922.18 862.95"><defs><style>.cls-1{fill:none;}.cls-2{fill:url(#linear-gradient);}.cls-3{fill:#3f3d56;}.cls-4{fill:#fff;}.cls-5{fill:#e6e8ec;}.cls-6{fill:url(#linear-gradient-2);}.cls-7{fill:#feb9b9;}.cls-8{fill:#2f2e41;}.cls-9{opacity:0.1;isolation:isolate;}.cls-10{fill:#efefef;}.cls-11{fill:#00b6e1;}.cls-12{clip-path:url(#clip-path);}.cls-13{clip-path:url(#clip-path-2);}</style><linearGradient id="linear-gradient" y1="403.97" x2="1922.18" y2="403.97" gradientUnits="userSpaceOnUse"><stop offset="0" stop-color="#11487b"/><stop offset="1" stop-color="#00b6e1"/></linearGradient><linearGradient id="linear-gradient-2" x1="-136.94" y1="-691.78" x2="-136.94" y2="-690.89" gradientTransform="translate(1486.66 345.78) rotate(180) scale(1.22 0.29)" gradientUnits="userSpaceOnUse"><stop offset="0" stop-color="gray" stop-opacity="0.25"/><stop offset="0.54" stop-color="gray" stop-opacity="0.12"/><stop offset="1" stop-color="gray" stop-opacity="0.1"/></linearGradient><clipPath id="clip-path"><polyline id="SVGID" class="cls-1" points="1436.46 546.23 1368.35 532.78 1385.41 516.48 1383.72 507.65 1418.29 489.6"/></clipPath><clipPath id="clip-path-2"><polyline id="SVGID-2" data-name="SVGID" class="cls-1" points="1478.35 575.77 1485.06 568.34 1478.57 558.67 1471.59 558.36 1460.48 565.1 1464.36 572.94 1469.3 577.61 1478.15 577.51"/></clipPath></defs><title>banner-1_1</title><g id="Layer_2" data-name="Layer 2"><g id="Layer_1-2" data-name="Layer 1"><path class="cls-2" d="M0,0H1920c3,67,4.53,60-6.64,98.05-41.31,140.62-269.52,142.11-452.66,234C1090,518,1110,633,812.24,748.75,650.13,811.76,283,904,0,543.73Z"/><g id="Group_2" data-name="Group 2"><rect id="Rectangle_76" data-name="Rectangle 76" class="cls-3" x="1270" y="357.08" width="9.62" height="79.31" rx="2"/><rect id="Rectangle_80" data-name="Rectangle 80" class="cls-3" x="1274.43" y="208.65" width="321.94" height="654.3" rx="34.13"/><path id="Path_176" data-name="Path 176" class="cls-4" d="M1319.2,225.69a25.58,25.58,0,0,0-25.53,25.61V820.38A25.57,25.57,0,0,0,1319.24,846h231.08a25.57,25.57,0,0,0,25.57-25.57V251.26a25.57,25.57,0,0,0-25.57-25.57h-34.58v4.46a21,21,0,0,1-21.06,21H1377.22a21.05,21.05,0,0,1-21-21.05v-4.44h-37Z"/><rect id="Rectangle_81" data-name="Rectangle 81" class="cls-5" x="1421.5" y="228.19" width="44.96" height="9.12" rx="3.39"/><circle id="Ellipse_5" data-name="Ellipse 5" class="cls-5" cx="1409.52" cy="232.75" r="5.18"/><circle id="Ellipse_11" data-name="Ellipse 11" class="cls-4" cx="1433.44" cy="543.83" r="60.9"/></g><g id="Group_1" data-name="Group 1"><rect id="Rectangle_77" data-name="Rectangle 77" class="cls-3" x="1584.29" y="337.64" width="4.85" height="23.47" rx="2"/><rect id="Rectangle_78" data-name="Rectangle 78" class="cls-3" x="1583.85" y="380.62" width="5.47" height="40.85" rx="2"/><rect id="Rectangle_79" data-name="Rectangle 79" class="cls-3" x="1584.03" y="435.76" width="5.2" height="41.2" rx="2"/><path id="Path_190" data-name="Path 190" class="cls-6" d="M1652.65,544.85a.91.91,0,0,0,1.07-.14A3.88,3.88,0,0,1,1652.65,544.85Z"/><path id="Path_192" data-name="Path 192" class="cls-7" d="M1669.21,562.36a30.54,30.54,0,0,0-7.48,3.44c-9,5.28-21.35,15.1-27.21,19.92-2.12,1.74-3.41,2.84-3.41,2.84l-14.29-10-1.48-8-.81-4.38-1-5.72Z"/><path id="Path_194" data-name="Path 194" class="cls-3" d="M1657.31,565.22c31-1.92,22.39-13.35,22.39-13.35s-48.6-3.34-56.7-2.86-17.65,4.32-16.67,11.44,17.64,4.26,17.64,4.26Z"/><rect id="Rectangle_82" data-name="Rectangle 82" class="cls-8" x="1587.52" y="329.84" width="87.19" height="103.38"/><rect id="Rectangle_83" data-name="Rectangle 83" class="cls-9" x="1587.52" y="330.31" width="87.19" height="103.38"/><path id="Path_198" data-name="Path 198" class="cls-7" d="M1791.18,498.23s1.24.69,3.09,1.95c7.59,5.2,25.39,20.35,9.3,39.51,0,0-12.58-20.41-21.37-29.11-2-2-3.87-3.4-5.31-3.76Z"/><path id="Path_199" data-name="Path 199" class="cls-7" d="M1639.69,369.14c-5.25,25.25,21,33.83,21,33.83l-46.21,17.16s-33.83-13.35-19.06-20.5,19.06-37.16,19.06-37.16Z"/><path id="Path_200" data-name="Path 200" class="cls-7" d="M1719.77,544.94a30.21,30.21,0,0,0-7.48,3.44c-9.06,5.28-21.37,15.1-27.23,19.92-2.12,1.74-3.41,2.83-3.41,2.83l-14.3-10-1.47-8-.85-4.4-1-5.7Z"/><path id="Path_202" data-name="Path 202" class="cls-8" d="M1708.07,550.06c29.45-1.91,22.81-15.39,22.81-15.39s-46.82-3.56-54.53-3.08-16.76,4.3-15.86,11.44,15.86,7,15.86,7Z"/><path id="Path_204" data-name="Path 204" class="cls-3" d="M1540.26,635.78c5.54-18.83,14.14-46.64,19.87-58.41,7.36-15.15,18.1-45.74,18.1-45.74h69.57c8,8-1.74,53.32-2,54.29,5.72-15.71,19.76-32.14,19.76-32.14l21.21,17.39c-14.26,3.34-28.14,59.56-35.74,85.28s-24.26,24.77-38.08,21c-12.94-3.58-14.6-42.26-14.76-47.14v-.51l-23,29.23-1.76,2.22-2,1C1554,670.78,1534.78,654.36,1540.26,635.78Z"/><path id="Path_205" data-name="Path 205" class="cls-9" d="M1579.27,489.48c.1-6.55-.31-12.27-1.55-16l61.21,35.5,11.44,29,.43,4.33s.51.25.07.25l-4.18.31c-15.34,1-62.49,3.62-73.23-2.74C1573.46,540.17,1579,510.53,1579.27,489.48Z"/><path id="Path_206" data-name="Path 206" class="cls-10" d="M1579.27,488.08c.1-6.56-.31-12.28-1.55-16l61.22,35.49L1647,540l3.77,1,.76.2-.69.06-4.18.29c-15.34,1-62.49,3.62-73.23-2.73C1573.46,538.74,1579,509.1,1579.27,488.08Z"/><path id="Path_207" data-name="Path 207" class="cls-9" d="M1577.76,472.06,1639,507.55l8.1,32.4,3.77,1a2.44,2.44,0,0,0,.06.26l-4.17.29c-4.12-2.43-10-8.24-17-21.78-10.53-20.34-37.92-28.76-50.37-31.64C1579.41,481.5,1579,475.78,1577.76,472.06Z"/><path id="Path_208" data-name="Path 208" class="cls-9" d="M1794.27,500.18c-3.4,2.07-10.88,6.92-12.07,10.4-2-2-3.87-3.4-5.31-3.76l14.29-8.57S1792.42,498.94,1794.27,500.18Z"/><path id="Path_209" data-name="Path 209" class="cls-9" d="M1654.43,541.6a.85.85,0,0,1-1,.13A3.26,3.26,0,0,0,1654.43,541.6Z"/><path id="Path_210" data-name="Path 210" class="cls-11" d="M1608.28,383.43c-18.14.45-41-18.1-41-18.1L1613.13,333l-2-8.1s-58.13,23.34-72.42,27.63S1525,365.84,1525,365.84s9,12.38,32.39,27.63c15.17,9.88,16.26,21.77,15.17,28.91a16.62,16.62,0,0,1-3.81,8.06c-6.56,7.73,2,26.36,2,26.36l2.38,28.1s42.87,6.19,56.69,32.88,23.34,23.34,23.34,23.34-6.67,6.67,0-49.07,38.15-35.26,43.84-31.92,26.19,18.1,26.19,18.1l57.66,33.35c-1.44-4.28,13.81-12.85,13.81-12.85s-87.67-48.61-100.56-73.38-51-35.73-51-35.73c-9,9.53-21.91,8.1-21.91,8.1C1604.91,397.25,1608.28,383.43,1608.28,383.43Z"/><path id="Path_211" data-name="Path 211" class="cls-9" d="M1640.74,385.13a27.73,27.73,0,0,1-.58-14.57l-25.24-6.67a92.45,92.45,0,0,1-2.64,11.64A27.13,27.13,0,0,0,1640.74,385.13Z"/><circle id="Ellipse_10" data-name="Ellipse 10" class="cls-7" cx="1633.25" cy="357.47" r="27.15"/><path id="Path_213" data-name="Path 213" class="cls-9" d="M1592.76,616.63c-4.76-9.52,11-40.49,11-40.49"/><path id="Path_221" data-name="Path 221" class="cls-8" d="M1618.81,294.76a25.3,25.3,0,0,1,12,1.38c3.8,1.5,5.54,4.47,8.63,6.83,3.31,2.53,9.91,2.47,13.81,2.93a97.32,97.32,0,0,0,14.28.61,32.31,32.31,0,0,1,8.22.31c5.7,1.28,10.24,5.91,14.48,10.38a7.73,7.73,0,0,1,2.4,3.85,8,8,0,0,1-.53,3.73,45.06,45.06,0,0,1-5.5,11.26c-1.72,2.56-3.76,5-4.74,8-1.1,3.33-.81,7-.23,10.51a63.48,63.48,0,0,0,3.68,13.19,24.64,24.64,0,0,1,2.14,7c.67,7.87-7.1,13.43-8.58,21.16-1.07,5.58,1.78,11.8,6.41,14a22,22,0,0,1-11.44,1.36c-3.31-.49-7.05-2.39-7.63-6.14-.19-1.52.11-3.09-.19-4.58-.46-2.18-2.15-3.7-3.69-5.11-3.94-3.64-7.73-8.37-8.06-14.14a43.32,43.32,0,0,0-.18-5.34c-.75-4.21-4.58-7.38-4.52-11.71,0-2.72,1.61-5.06,2.3-7.66,1.29-4.79-.67-10.08-3.79-13.66s-7.21-5.74-11.23-7.82c-2.43-1.26-4.94-2.56-7.67-2.15s-5,2.55-6.94,4.8c-5.85,6.81-10,15.27-15.15,22.73-2.22,3.17-5.08,6.43-8.63,6.43a16.35,16.35,0,0,1-4.82-1.17c-6.17-1.86-12.7-.54-19.08-1-16-1.1-30-12.09-34.55-29.67,6.62,2.78,13.28-4.31,18-10.36s7.84-13.52,13-19.07a61.83,61.83,0,0,1,6.84-6.1c1.51-1.2,3.14-2.45,5-2.5,3-.09,5.33,2.92,8.21,3.81a10.89,10.89,0,0,0,5.72-.21c7.42-1.77,14.58-5,22.11-5.86Z"/></g><path class="cls-11" d="M1380.44,492.3l-2.37-11.65s-5.91-33,23-22.57l101.09,46s31.5,11.23,9.8,36.2l-71.82,74.62s-27.68,32-35.86-6.19c-7.65-35.65-14.36-67.15-18.41-89.91C1384.72,512.39,1383,503.27,1380.44,492.3Z"/><path class="cls-11" d="M1480.18,494.27l22,10s31.5,11.24,9.8,36.21l-71.82,74.62s-19.85,22.92-30.9,6.77c-2-2.92-3.71-7.12-5-13C1399.69,586.42,1453.65,482.21,1480.18,494.27Z"/><path class="cls-4" d="M1434.58,556.06a8.39,8.39,0,0,1-8.43-5.21c-2.38-5.33-16.54-32.79-17.87-35.39-.58-.79-1.93-3-1.16-5.25a4.86,4.86,0,0,1,3.81-3.11L1472.65,492a6.12,6.12,0,0,1,5,.4,5,5,0,0,1,2.24,4v.31l-1.72,44.5c-.06,1.92-1.5,5.5-6.6,6.86l-.12,0-33.35,7.25A11.32,11.32,0,0,1,1434.58,556.06Zm-22.49-44a2.83,2.83,0,0,0,.3.5l.16.2.12.23c.63,1.23,15.55,30.14,18.1,35.84,1.45,3.25,5,2.07,5.73,1.8l.18-.07.2,0,33.49-7.28c2.35-.64,2.73-1.84,2.79-2.14v0l1.72-44.29v0a2.48,2.48,0,0,0-.66.12l-.26.08L1412.13,512Z"/><path class="cls-4" d="M1428.72,570.67c-6,.21-9.48-3.08-10.73-5.4l-.06-.12-23.83-47.66s5.11,1.39,7.06-4.75l24.21,48.43c.31.4,1.57,1.63,5,.78,7.2-1.77,51-11.47,51-11.47,6.65,1.53,5.6,6.18,1.82,8.25-2.55.56-43.69,9.66-50.8,11.41A16.92,16.92,0,0,1,1428.72,570.67Z"/><path class="cls-4" d="M1438.84,570.33A6.9,6.9,0,1,0,1446,577,6.9,6.9,0,0,0,1438.84,570.33Z"/><g class="cls-12"><path class="cls-4" d="M1396.73,516.09l-20.27.69s-7.43-4-.29-8.43l20.27-.7S1403,511.65,1396.73,516.09Z"/></g><g class="cls-13"><path class="cls-4" d="M1477.75,561.56a6.9,6.9,0,1,0,5.67,8A6.9,6.9,0,0,0,1477.75,561.56Z"/></g></g></g></svg>