<svg xmlns="http://www.w3.org/2000/svg" xmlns:xlink="http://www.w3.org/1999/xlink" viewBox="0 0 665.78 139"><defs><style>.cls-1{fill:none;}.cls-2{isolation:isolate;}.cls-3{fill:#383838;}.cls-4{fill:#5a5957;}.cls-5{opacity:0.4;mix-blend-mode:multiply;fill:url(#Degradado_sin_nombre_2);}.cls-6{fill:url(#linear-gradient);}.cls-7{fill:url(#linear-gradient-2);}.cls-8{fill:#fff;}.cls-9{clip-path:url(#clip-path);}.cls-10{clip-path:url(#clip-path-2);}</style><radialGradient id="Degradado_sin_nombre_2" cx="58.43" cy="135.14" fx="25.026210804153955" r="50.49" gradientTransform="translate(0 124.83) scale(1 0.08)" gradientUnits="userSpaceOnUse"><stop offset="0" stop-color="#010101"/><stop offset="1" stop-color="#fff" stop-opacity="0"/></radialGradient><linearGradient id="linear-gradient" x1="14.01" y1="61.88" x2="116.56" y2="61.88" gradientUnits="userSpaceOnUse"><stop offset="0" stop-color="#10497c"/><stop offset="1" stop-color="#00b8e2"/></linearGradient><linearGradient id="linear-gradient-2" x1="33.11" y1="75.43" x2="116.59" y2="75.43" xlink:href="#linear-gradient"/><clipPath id="clip-path"><polyline class="cls-1" points="56.54 65.14 7.34 55.43 19.67 43.66 18.45 37.28 43.41 24.25"/></clipPath><clipPath id="clip-path-2"><polyline class="cls-1" points="86.79 86.48 91.63 81.11 86.95 74.13 81.91 73.9 73.88 78.78 76.69 84.43 80.25 87.81 86.65 87.73"/></clipPath></defs><title>ezzy mart logo</title><g class="cls-2"><g id="Layer_2" data-name="Layer 2"><g id="Layer_1-2" data-name="Layer 1"><path class="cls-3" d="M203.77,85.37V99.64H161.29V40H203V54.31H177.66V62.7h21.66V76H177.66v9.4Z"/><path class="cls-3" d="M218.71,87.47l27.87-33.16H220V40h45.49V52.21L239.27,85.37H266V99.64H218.71Z"/><path class="cls-3" d="M281.08,87.47l27.86-33.16h-26.6V40h45.49V52.21L301.64,85.37h26.7V99.64H281.08Z"/><path class="cls-3" d="M358.39,40l10.66,25.77L380,40h17.79L377.19,79.91V99.64H360.9V79.74L340.67,40Z"/><path class="cls-4" d="M461.21,99V50.45L439.64,88.14H436L414.29,50.45V99h-5.88V39.37h6l23.25,40.79,23.42-40.79h6V99Z"/><path class="cls-4" d="M510.65,39.37h5L540.37,99h-6.21l-7.45-18.63H499.47L492,99h-6.3Zm14.21,36.34L513.09,46.25,501.31,75.71Z"/><path class="cls-4" d="M559.09,99V39.37h25.18A15.57,15.57,0,0,1,591.32,41a18.3,18.3,0,0,1,5.58,4.32,20.44,20.44,0,0,1,3.7,6,18.5,18.5,0,0,1,1.3,6.76,20,20,0,0,1-1.64,8,17.57,17.57,0,0,1-4.62,6.38,15,15,0,0,1-7,3.44l14.61,23h-6.63l-14-22H565V99ZM565,71.77h19.48a10.06,10.06,0,0,0,6.13-1.93,12.87,12.87,0,0,0,4-5.08A16,16,0,0,0,596,58.09a14.13,14.13,0,0,0-6-11.63,10.45,10.45,0,0,0-6.08-1.89H565Z"/><path class="cls-4" d="M665.78,44.57H644.54V99h-5.87V44.57H617.43v-5.2h48.35Z"/><ellipse class="cls-5" cx="58.43" cy="135.14" rx="58.43" ry="3.86"/><path class="cls-6" d="M16.08,26.2l-1.72-8.41S10.1-6.08,31,1.48l73,33.19s22.75,8.12,7.07,26.15L59.19,114.71s-20,23.09-25.9-4.47C27.76,84.49,22.92,61.75,20,45.31,19.17,40.71,17.91,34.12,16.08,26.2Z"/><path class="cls-7" d="M88.11,27.62,104,34.84S126.75,43,111.08,61L59.21,114.88s-14.34,16.56-22.32,4.89a26.38,26.38,0,0,1-3.58-9.36C30,94.17,69,18.91,88.11,27.62Z"/><path class="cls-8" d="M55.18,72.25a6.08,6.08,0,0,1-6.09-3.77C47.37,64.63,37.15,44.8,36.18,42.93a4.41,4.41,0,0,1-.84-3.8,3.54,3.54,0,0,1,2.76-2.25L82.67,26a4.47,4.47,0,0,1,3.65.29,3.6,3.6,0,0,1,1.61,2.91v.23L86.69,61.53c0,1.39-1.08,4-4.76,5l-.09,0L57.75,71.75A8.74,8.74,0,0,1,55.18,72.25ZM38.93,40.44c.08.14.17.29.22.36l.12.15.08.16C39.81,42,50.58,62.88,52.42,67c1,2.35,3.63,1.5,4.14,1.3l.13-.05.15,0L81,63c1.7-.47,2-1.33,2-1.55v0l1.24-32v0a2,2,0,0,0-.48.09l-.18.05L39,40.43Z"/><path class="cls-8" d="M51,82.8a8.3,8.3,0,0,1-7.76-3.91l0-.08L25.94,44.39s3.7,1,5.1-3.43c1,2,17.49,35,17.49,35,.22.28,1.13,1.17,3.62.56C57.35,75.22,89,68.22,89,68.22c4.8,1.1,4,4.46,1.31,6-1.84.41-31.56,7-36.68,8.25A13.41,13.41,0,0,1,51,82.8Z"/><path class="cls-8" d="M58.26,82.55a5,5,0,1,0,5.15,4.81A5,5,0,0,0,58.26,82.55Z"/><g class="cls-9"><path class="cls-8" d="M27.84,43.38l-14.64.5S7.84,41,13,37.79l14.64-.5S32.34,40.17,27.84,43.38Z"/></g><g class="cls-10"><path class="cls-8" d="M86.35,76.22A5,5,0,1,0,90.45,82,5,5,0,0,0,86.35,76.22Z"/></g></g></g></g></svg>